# WaveFront *.obj file (generated by Cinema 4D)

mtllib ./EnergieUnterPerson.mtl

v 0.000000 0.000000 0.000000
v 100.000000 0.000000 0.000000
v 98.192870 0.000000 -18.925124
v 92.836793 0.000000 -37.166246
v 84.125353 0.000000 -54.064082
v 72.373404 0.000000 -69.007901
v 58.005691 0.000000 -81.457595
v 41.541501 0.000000 -90.963200
v 23.575894 0.000000 -97.181157
v 4.758192 0.000000 -99.886734
v -14.231484 0.000000 -98.982144
v -32.706796 0.000000 -94.500082
v -50.000000 0.000000 -86.602540
v -65.486073 0.000000 -75.574957
v -78.605309 0.000000 -61.815899
v -88.883545 0.000000 -45.822652
v -95.949297 0.000000 -28.173256
v -99.547192 0.000000 -9.505604
v -99.547192 0.000000 9.505604
v -95.949297 0.000000 28.173256
v -88.883545 0.000000 45.822652
v -78.605309 0.000000 61.815899
v -65.486073 0.000000 75.574957
v -50.000000 0.000000 86.602540
v -32.706796 0.000000 94.500082
v -14.231484 0.000000 98.982144
v 4.758192 0.000000 99.886734
v 23.575894 0.000000 97.181157
v 41.541501 0.000000 90.963200
v 58.005691 0.000000 81.457595
v 72.373404 0.000000 69.007901
v 84.125353 0.000000 54.064082
v 92.836793 0.000000 37.166246
v 98.192870 0.000000 18.925124
# 34 vertices

vn 0.000000 1.000000 0.000000
vn 0.000000 1.000000 0.000000
vn 0.000000 1.000000 0.000000
# 3 normals

vt 1.000000 0.500000 0.000000
vt 0.500000 0.500000 0.000000
vt 0.990964 0.594626 0.000000
vt 0.000000 1.000000 0.000000
vt 0.964184 0.685831 0.000000
vt 0.920627 0.770320 0.000000
vt 0.861867 0.845040 0.000000
vt 0.790028 0.907288 0.000000
vt 0.707708 0.954816 0.000000
vt 0.617879 0.985906 0.000000
vt 0.523791 0.999434 0.000000
vt 0.428843 0.994911 0.000000
vt 0.336466 0.972500 0.000000
vt 0.250000 0.933013 0.000000
vt 0.172570 0.877875 0.000000
vt 0.106973 0.809079 0.000000
vt 0.055582 0.729113 0.000000
vt 0.020254 0.640866 0.000000
vt 0.002264 0.547528 0.000000
vt 0.002264 0.452472 0.000000
vt 0.020254 0.359134 0.000000
vt 0.055582 0.270887 0.000000
vt 0.106973 0.190921 0.000000
vt 0.172570 0.122125 0.000000
vt 0.250000 0.066987 0.000000
vt 0.336466 0.027500 0.000000
vt 0.428843 0.005089 0.000000
vt 0.523791 0.000566 0.000000
vt 0.617879 0.014094 0.000000
vt 0.707708 0.045184 0.000000
vt 0.790028 0.092712 0.000000
vt 0.861867 0.154961 0.000000
vt 0.920627 0.229680 0.000000
vt 0.964184 0.314169 0.000000
vt 0.990964 0.405374 0.000000
# 35 texture coordinates

o Scheibe.1
usemtl Mat.1_1
f 3/3/1 1/2/1 2/1/1
f 4/5/1 1/2/1 3/3/1
f 5/6/1 1/2/1 4/5/1
f 6/7/1 1/2/1 5/6/1
f 7/8/1 1/2/1 6/7/1
f 8/9/1 1/2/1 7/8/1
f 9/10/1 1/2/1 8/9/1
f 10/11/1 1/2/1 9/10/1
f 11/12/1 1/2/1 10/11/1
f 12/13/1 1/2/1 11/12/1
f 13/14/1 1/2/1 12/13/1
f 14/15/1 1/2/1 13/14/1
f 15/16/1 1/2/1 14/15/1
f 16/17/1 1/2/1 15/16/1
f 17/18/1 1/2/1 16/17/1
f 18/19/1 1/2/1 17/18/1
f 19/20/1 1/2/1 18/19/1
f 20/21/2 1/2/1 19/20/1
f 21/22/2 1/2/1 20/21/2
f 22/23/2 1/2/1 21/22/2
f 23/24/2 1/2/1 22/23/2
f 24/25/2 1/2/1 23/24/2
f 25/26/2 1/2/1 24/25/2
f 26/27/2 1/2/1 25/26/2
f 27/28/1 1/2/1 26/27/2
f 28/29/3 1/2/1 27/28/1
f 29/30/3 1/2/1 28/29/3
f 30/31/3 1/2/1 29/30/3
f 31/32/3 1/2/1 30/31/3
f 32/33/3 1/2/1 31/32/3
f 33/34/3 1/2/1 32/33/3
f 34/35/3 1/2/1 33/34/3
f 2/1/1 1/2/1 34/35/3

