# WaveFront *.obj file (generated by Cinema 4D)

mtllib ./Seerosenblatt.mtl

v 0.000000 -2.239116 0.000000
v 0.000000 2.239116 0.000000
v 68.452465 -2.239116 0.000000
v 68.452465 -1.119558 0.000000
v 68.452465 0.000000 0.000000
v 68.452465 1.119558 0.000000
v 68.452465 2.239116 0.000000
v 65.411314 -2.239116 -20.176718
v 65.411314 -1.119558 -20.176718
v 65.411314 0.000000 -20.176718
v 65.411314 1.119558 -20.176718
v 65.411314 2.239116 -20.176718
v 56.558080 -2.239116 -38.560646
v 56.558080 -1.119558 -38.560646
v 56.558080 0.000000 -38.560646
v 56.558080 1.119558 -38.560646
v 56.558080 2.239116 -38.560646
v 42.679414 -2.239116 -53.518292
v 42.679414 -1.119558 -53.518292
v 42.679414 0.000000 -53.518292
v 42.679414 1.119558 -53.518292
v 42.679414 2.239116 -53.518292
v 25.008494 -2.239116 -63.720602
v 25.008494 -1.119558 -63.720602
v 25.008494 0.000000 -63.720602
v 25.008494 1.119558 -63.720602
v 25.008494 2.239116 -63.720602
v 5.115459 -2.239116 -68.261058
v 5.115459 -1.119558 -68.261058
v 5.115459 0.000000 -68.261058
v 5.115459 1.119558 -68.261058
v 5.115459 2.239116 -68.261058
v -15.232106 -2.239116 -66.736218
v -15.232106 -1.119558 -66.736218
v -15.232106 0.000000 -66.736218
v -15.232106 1.119558 -66.736218
v -15.232106 2.239116 -66.736218
v -34.226232 -2.239116 -59.281573
v -34.226232 -1.119558 -59.281573
v -34.226232 0.000000 -59.281573
v -34.226232 1.119558 -59.281573
v -34.226232 2.239116 -59.281573
v -50.179207 -2.239116 -46.559500
v -50.179207 -1.119558 -46.559500
v -50.179207 0.000000 -46.559500
v -50.179207 1.119558 -46.559500
v -50.179207 2.239116 -46.559500
v -61.673539 -2.239116 -29.700411
v -61.673539 -1.119558 -29.700411
v -61.673539 0.000000 -29.700411
v -61.673539 1.119558 -29.700411
v -61.673539 2.239116 -29.700411
v -67.687907 -2.239116 -10.202310
v -67.687907 -1.119558 -10.202310
v -67.687907 0.000000 -10.202310
v -67.687907 1.119558 -10.202310
v -67.687907 2.239116 -10.202310
v -67.687907 -2.239116 10.202310
v -67.687907 -1.119558 10.202310
v -67.687907 0.000000 10.202310
v -67.687907 1.119558 10.202310
v -67.687907 2.239116 10.202310
v -61.673539 -2.239116 29.700411
v -61.673539 -1.119558 29.700411
v -61.673539 0.000000 29.700411
v -61.673539 1.119558 29.700411
v -61.673539 2.239116 29.700411
v -50.179207 -2.239116 46.559500
v -50.179207 -1.119558 46.559500
v -50.179207 0.000000 46.559500
v -50.179207 1.119558 46.559500
v -50.179207 2.239116 46.559500
v -34.226232 -2.239116 59.281573
v -34.226232 -1.119558 59.281573
v -34.226232 0.000000 59.281573
v -34.226232 1.119558 59.281573
v -34.226232 2.239116 59.281573
v -15.232106 -2.239116 66.736218
v -15.232106 -1.119558 66.736218
v -15.232106 0.000000 66.736218
v -15.232106 1.119558 66.736218
v -15.232106 2.239116 66.736218
v 5.115459 -2.239116 68.261058
v 5.115459 -1.119558 68.261058
v 5.115459 0.000000 68.261058
v 5.115459 1.119558 68.261058
v 5.115459 2.239116 68.261058
v 25.008494 -2.239116 63.720602
v 25.008494 -1.119558 63.720602
v 25.008494 0.000000 63.720602
v 25.008494 1.119558 63.720602
v 25.008494 2.239116 63.720602
v 42.679414 -2.239116 53.518292
v 42.679414 -1.119558 53.518292
v 42.679414 0.000000 53.518292
v 42.679414 1.119558 53.518292
v 42.679414 2.239116 53.518292
# 97 vertices

vn 0.000000 -1.000000 0.000000
vn 0.988831 0.000000 -0.149042
vn 0.955573 0.000000 -0.294755
vn 0.955573 0.000000 -0.294755
vn 0.000000 1.000000 0.000000
vn 0.826239 0.000000 -0.563320
vn 0.826239 0.000000 -0.563320
vn 0.623490 0.000000 -0.781831
vn 0.623490 0.000000 -0.781831
vn 0.365341 0.000000 -0.930874
vn 0.074730 0.000000 -0.997204
vn -0.222521 0.000000 -0.974928
vn -0.222521 0.000000 -0.974928
vn -0.500000 0.000000 -0.866025
vn -0.733052 0.000000 -0.680173
vn -0.733052 0.000000 -0.680173
vn -0.900969 0.000000 -0.433884
vn -0.988831 0.000000 -0.149042
vn -0.988831 0.000000 -0.149042
vn -0.988831 0.000000 0.149042
vn -0.900969 0.000000 0.433884
vn -0.900969 0.000000 0.433884
vn -0.733052 0.000000 0.680173
vn -0.500000 0.000000 0.866025
vn -0.500000 0.000000 0.866025
vn -0.222521 0.000000 0.974928
vn 0.074730 0.000000 0.997204
vn 0.365341 0.000000 0.930874
vn 0.365341 0.000000 0.930874
vn 0.500000 0.000000 0.866025
vn 0.500000 0.000000 0.866025
vn -0.781832 0.000000 0.623490
vn -0.781831 0.000000 0.623489
vn -0.781831 0.000000 0.623489
vn 0.000000 0.000000 -1.000000
vn 0.000000 0.000000 -0.999999
vn 0.000000 0.000000 -0.999999
# 37 normals

vt 0.500000 0.500000 0.000000
vt 0.000000 0.500000 0.000000
vt 0.022214 0.647378 0.000000
vt 0.000000 1.000000 0.000000
vt 0.000000 0.000000 0.000000
vt 0.000000 0.250000 0.000000
vt 0.047619 0.250000 0.000000
vt 0.047619 0.000000 0.000000
vt 0.047619 0.500000 0.000000
vt 0.000000 0.750000 0.000000
vt 0.047619 0.750000 0.000000
vt 0.047619 1.000000 0.000000
vt 1.000000 0.500000 0.000000
vt 0.977786 0.647378 0.000000
vt 0.086881 0.781660 0.000000
vt 0.095238 0.250000 0.000000
vt 0.095238 0.000000 0.000000
vt 0.095238 0.500000 0.000000
vt 0.095238 0.750000 0.000000
vt 0.095238 1.000000 0.000000
vt 0.913119 0.781660 0.000000
vt 0.188255 0.890916 0.000000
vt 0.142857 0.250000 0.000000
vt 0.142857 0.000000 0.000000
vt 0.142857 0.500000 0.000000
vt 0.142857 0.750000 0.000000
vt 0.142857 1.000000 0.000000
vt 0.811745 0.890916 0.000000
vt 0.317329 0.965437 0.000000
vt 0.190476 0.250000 0.000000
vt 0.190476 0.000000 0.000000
vt 0.190476 0.500000 0.000000
vt 0.190476 0.750000 0.000000
vt 0.190476 1.000000 0.000000
vt 0.682671 0.965437 0.000000
vt 0.462635 0.998602 0.000000
vt 0.238095 0.250000 0.000000
vt 0.238095 0.000000 0.000000
vt 0.238095 0.500000 0.000000
vt 0.238095 0.750000 0.000000
vt 0.238095 1.000000 0.000000
vt 0.537365 0.998602 0.000000
vt 0.611260 0.987464 0.000000
vt 0.285714 0.250000 0.000000
vt 0.285714 0.000000 0.000000
vt 0.285714 0.500000 0.000000
vt 0.285714 0.750000 0.000000
vt 0.285714 1.000000 0.000000
vt 0.388740 0.987464 0.000000
vt 0.750000 0.933013 0.000000
vt 0.333333 0.250000 0.000000
vt 0.333333 0.000000 0.000000
vt 0.333333 0.500000 0.000000
vt 0.333333 0.750000 0.000000
vt 0.333333 1.000000 0.000000
vt 0.250000 0.933013 0.000000
vt 0.866526 0.840086 0.000000
vt 0.380952 0.250000 0.000000
vt 0.380952 0.000000 0.000000
vt 0.380952 0.500000 0.000000
vt 0.380952 0.750000 0.000000
vt 0.380952 1.000000 0.000000
vt 0.133474 0.840086 0.000000
vt 0.950484 0.716942 0.000000
vt 0.428571 0.250000 0.000000
vt 0.428571 0.000000 0.000000
vt 0.428571 0.500000 0.000000
vt 0.428571 0.750000 0.000000
vt 0.428571 1.000000 0.000000
vt 0.049516 0.716942 0.000000
vt 0.994415 0.574521 0.000000
vt 0.476190 0.250000 0.000000
vt 0.476190 0.000000 0.000000
vt 0.476190 0.500000 0.000000
vt 0.476190 0.750000 0.000000
vt 0.476190 1.000000 0.000000
vt 0.005585 0.574521 0.000000
vt 0.994415 0.425479 0.000000
vt 0.523810 0.250000 0.000000
vt 0.523810 0.000000 0.000000
vt 0.523810 0.500000 0.000000
vt 0.523810 0.750000 0.000000
vt 0.523810 1.000000 0.000000
vt 0.005585 0.425479 0.000000
vt 0.950484 0.283058 0.000000
vt 0.571429 0.250000 0.000000
vt 0.571429 0.000000 0.000000
vt 0.571429 0.500000 0.000000
vt 0.571429 0.750000 0.000000
vt 0.571429 1.000000 0.000000
vt 0.049516 0.283058 0.000000
vt 0.866526 0.159914 0.000000
vt 0.619048 0.250000 0.000000
vt 0.619048 0.000000 0.000000
vt 0.619048 0.500000 0.000000
vt 0.619048 0.750000 0.000000
vt 0.619048 1.000000 0.000000
vt 0.133474 0.159914 0.000000
vt 0.750000 0.066987 0.000000
vt 0.666667 0.250000 0.000000
vt 0.666667 0.000000 0.000000
vt 0.666667 0.500000 0.000000
vt 0.666667 0.750000 0.000000
vt 0.666667 1.000000 0.000000
vt 0.250000 0.066987 0.000000
vt 0.611260 0.012536 0.000000
vt 0.714286 0.250000 0.000000
vt 0.714286 0.000000 0.000000
vt 0.714286 0.500000 0.000000
vt 0.714286 0.750000 0.000000
vt 0.714286 1.000000 0.000000
vt 0.388740 0.012536 0.000000
vt 0.462635 0.001398 0.000000
vt 0.761905 0.250000 0.000000
vt 0.761905 0.000000 0.000000
vt 0.761905 0.500000 0.000000
vt 0.761905 0.750000 0.000000
vt 0.761905 1.000000 0.000000
vt 0.537365 0.001398 0.000000
vt 0.317329 0.034563 0.000000
vt 0.809524 0.250000 0.000000
vt 0.809524 0.000000 0.000000
vt 0.809524 0.500000 0.000000
vt 0.809524 0.750000 0.000000
vt 0.809524 1.000000 0.000000
vt 0.682671 0.034563 0.000000
vt 0.188255 0.109084 0.000000
vt 0.857143 0.250000 0.000000
vt 0.857143 0.000000 0.000000
vt 0.857143 0.500000 0.000000
vt 0.857143 0.750000 0.000000
vt 0.857143 1.000000 0.000000
vt 0.811745 0.109084 0.000000
# 133 texture coordinates

o Zylinder
usemtl Mat_1
f 8/3/1 3/2/1 1/1/1
f 8/8/4 9/7/3 4/6/2 3/5/2
f 9/7/3 10/9/3 5/2/2 4/6/2
f 10/9/3 11/11/3 6/10/2 5/2/2
f 11/11/3 12/12/4 7/4/2 6/10/2
f 12/14/5 2/1/5 7/13/5
f 13/15/1 8/3/1 1/1/1
f 13/17/7 14/16/6 9/7/3 8/8/4
f 14/16/6 15/18/6 10/9/3 9/7/3
f 15/18/6 16/19/6 11/11/3 10/9/3
f 16/19/6 17/20/7 12/12/4 11/11/3
f 17/21/5 2/1/5 12/14/5
f 18/22/1 13/15/1 1/1/1
f 18/24/9 19/23/8 14/16/6 13/17/7
f 19/23/8 20/25/8 15/18/6 14/16/6
f 20/25/8 21/26/8 16/19/6 15/18/6
f 21/26/8 22/27/9 17/20/7 16/19/6
f 22/28/5 2/1/5 17/21/5
f 23/29/1 18/22/1 1/1/1
f 23/31/10 24/30/10 19/23/8 18/24/9
f 24/30/10 25/32/10 20/25/8 19/23/8
f 25/32/10 26/33/10 21/26/8 20/25/8
f 26/33/10 27/34/10 22/27/9 21/26/8
f 27/35/5 2/1/5 22/28/5
f 28/36/1 23/29/1 1/1/1
f 28/38/11 29/37/11 24/30/10 23/31/10
f 29/37/11 30/39/11 25/32/10 24/30/10
f 30/39/11 31/40/11 26/33/10 25/32/10
f 31/40/11 32/41/11 27/34/10 26/33/10
f 32/42/5 2/1/5 27/35/5
f 33/43/1 28/36/1 1/1/1
f 33/45/13 34/44/12 29/37/11 28/38/11
f 34/44/12 35/46/12 30/39/11 29/37/11
f 35/46/12 36/47/12 31/40/11 30/39/11
f 36/47/12 37/48/13 32/41/11 31/40/11
f 37/49/5 2/1/5 32/42/5
f 38/50/1 33/43/1 1/1/1
f 38/52/14 39/51/14 34/44/12 33/45/13
f 39/51/14 40/53/14 35/46/12 34/44/12
f 40/53/14 41/54/14 36/47/12 35/46/12
f 41/54/14 42/55/14 37/48/13 36/47/12
f 42/56/5 2/1/5 37/49/5
f 43/57/1 38/50/1 1/1/1
f 43/59/16 44/58/15 39/51/14 38/52/14
f 44/58/15 45/60/15 40/53/14 39/51/14
f 45/60/15 46/61/15 41/54/14 40/53/14
f 46/61/15 47/62/16 42/55/14 41/54/14
f 47/63/5 2/1/5 42/56/5
f 48/64/1 43/57/1 1/1/1
f 48/66/17 49/65/17 44/58/15 43/59/16
f 49/65/17 50/67/17 45/60/15 44/58/15
f 50/67/17 51/68/17 46/61/15 45/60/15
f 51/68/17 52/69/17 47/62/16 46/61/15
f 52/70/5 2/1/5 47/63/5
f 53/71/1 48/64/1 1/1/1
f 53/73/19 54/72/18 49/65/17 48/66/17
f 54/72/18 55/74/18 50/67/17 49/65/17
f 55/74/18 56/75/18 51/68/17 50/67/17
f 56/75/18 57/76/19 52/69/17 51/68/17
f 57/77/5 2/1/5 52/70/5
f 58/78/1 53/71/1 1/1/1
f 58/80/20 59/79/20 54/72/18 53/73/19
f 59/79/20 60/81/20 55/74/18 54/72/18
f 60/81/20 61/82/20 56/75/18 55/74/18
f 61/82/20 62/83/20 57/76/19 56/75/18
f 62/84/5 2/1/5 57/77/5
f 63/85/1 58/78/1 1/1/1
f 63/87/22 64/86/21 59/79/20 58/80/20
f 64/86/21 65/88/21 60/81/20 59/79/20
f 65/88/21 66/89/21 61/82/20 60/81/20
f 66/89/21 67/90/22 62/83/20 61/82/20
f 67/91/5 2/1/5 62/84/5
f 68/92/1 63/85/1 1/1/1
f 68/94/23 69/93/23 64/86/21 63/87/22
f 69/93/23 70/95/23 65/88/21 64/86/21
f 70/95/23 71/96/23 66/89/21 65/88/21
f 71/96/23 72/97/23 67/90/22 66/89/21
f 72/98/5 2/1/5 67/91/5
f 73/99/1 68/92/1 1/1/1
f 73/101/25 74/100/24 69/93/23 68/94/23
f 74/100/24 75/102/24 70/95/23 69/93/23
f 75/102/24 76/103/24 71/96/23 70/95/23
f 76/103/24 77/104/25 72/97/23 71/96/23
f 77/105/5 2/1/5 72/98/5
f 78/106/1 73/99/1 1/1/1
f 78/108/26 79/107/26 74/100/24 73/101/25
f 79/107/26 80/109/26 75/102/24 74/100/24
f 80/109/26 81/110/26 76/103/24 75/102/24
f 81/110/26 82/111/26 77/104/25 76/103/24
f 82/112/5 2/1/5 77/105/5
f 83/113/1 78/106/1 1/1/1
f 83/115/27 84/114/27 79/107/26 78/108/26
f 84/114/27 85/116/27 80/109/26 79/107/26
f 85/116/27 86/117/27 81/110/26 80/109/26
f 86/117/27 87/118/27 82/111/26 81/110/26
f 87/119/5 2/1/5 82/112/5
f 88/120/1 83/113/1 1/1/1
f 88/122/29 89/121/28 84/114/27 83/115/27
f 89/121/28 90/123/28 85/116/27 84/114/27
f 90/123/28 91/124/28 86/117/27 85/116/27
f 91/124/28 92/125/29 87/118/27 86/117/27
f 92/126/5 2/1/5 87/119/5
f 93/127/1 88/120/1 1/1/1
f 93/129/31 94/128/30 89/121/28 88/122/29
f 94/128/30 95/130/30 90/123/28 89/121/28
f 95/130/30 96/131/30 91/124/28 90/123/28
f 96/131/30 97/132/31 92/125/29 91/124/28
f 97/133/5 2/1/5 92/126/5
f 1/1/33 93/1/32 2/1/32
f 97/132/34 2/1/32 93/1/32
f 2/1/35 7/1/36 3/2/35
f 2/1/35 3/1/35 1/1/37

